PathFileType	4	(X/Y/Z)	s01c0102.trc
DataRate	CameraRate	NumFrames	NumMarkers	Units	OrigDataRate	OrigDataStartFrame	OrigNumFrames
200	200	4	48	mm	200	0	2000
Frame#	Time	racr			lacr			c7			jug			rlel			rdr			llel			ldr			s2			lic			ric			lasi			rasi			rpsi			lpsi			rgt			lgt			rth1			rth2			rth3			rth4			rlfc			rsh1			rsh2			rsh3			rsh4			rlmal			rmmal			rcal			rtoe			rmt5			lth1			lth2			lth4			lth3			llfc			lsh1			lsh2			lsh3			lsh4			llmal			lmmal			lcal			ltoe			lmt5			SBIKE			LBIKE			RBIKE			
		X1	Y1	Z1	X2	Y2	Z2	X3	Y3	Z3	X4	Y4	Z4	X5	Y5	Z5	X6	Y6	Z6	X7	Y7	Z7	X8	Y8	Z8	X9	Y9	Z9	X10	Y10	Z10	X11	Y11	Z11	X12	Y12	Z12	X13	Y13	Z13	X14	Y14	Z14	X15	Y15	Z15	X16	Y16	Z16	X17	Y17	Z17	X18	Y18	Z18	X19	Y19	Z19	X20	Y20	Z20	X21	Y21	Z21	X22	Y22	Z22	X23	Y23	Z23	X24	Y24	Z24	X25	Y25	Z25	X26	Y26	Z26	X27	Y27	Z27	X28	Y28	Z28	X29	Y29	Z29	X30	Y30	Z30	X31	Y31	Z31	X32	Y32	Z32	X33	Y33	Z33	X34	Y34	Z34	X35	Y35	Z35	X36	Y36	Z36	X37	Y37	Z37	X38	Y38	Z38	X39	Y39	Z39	X40	Y40	Z40	X41	Y41	Z41	X42	Y42	Z42	X43	Y43	Z43	X44	Y44	Z44	X45	Y45	Z45	X46	Y46	Z46	X47	Y47	Z47	X48	Y48	Z48	
0	0.0000	491.251831	1326.264350	-148.366633	485.633110	1334.022569	-446.865116	0.000000	0.000000	-0.000000	0.000000	0.000000	-0.000000	574.900922	1065.457494	-52.695938	734.873518	860.556792	-91.525503	582.049823	1067.429851	-498.308092	0.000000	0.000000	-0.000000	-79.855689	1150.924481	-253.257885	115.911201	1152.613146	-467.232458	91.234031	1136.458839	-106.318804	80.412277	1095.237929	-406.481080	106.893945	1082.996572	-125.767836	-44.988592	1186.547597	-199.627390	-51.707361	1189.715186	-306.246337	16.348492	1022.693108	-69.203913	16.578496	1045.139819	-465.771909	79.935755	898.194034	-50.276210	124.633522	829.219537	-59.688131	167.797964	751.027502	-75.715555	171.110403	857.414112	-74.482910	198.022233	647.630206	-100.990057	138.577134	543.732754	-67.359987	113.396881	462.808092	-70.072339	77.970553	381.233899	-82.434032	157.671053	448.072383	-108.333896	26.578244	262.855070	-103.153327	0.000000	0.000000	-0.000000	0.000000	0.000000	-0.000000	0.000000	0.000000	-0.000000	0.000000	0.000000	-0.000000	0.000000	0.000000	-0.000000	0.000000	0.000000	-0.000000	0.000000	0.000000	-0.000000	0.000000	0.000000	-0.000000	0.000000	0.000000	-0.000000	0.000000	0.000000	-0.000000	0.000000	0.000000	-0.000000	0.000000	0.000000	-0.000000	0.000000	0.000000	-0.000000	0.000000	0.000000	-0.000000	0.000000	0.000000	-0.000000	129.667085	521.968895	-368.921644	0.000000	0.000000	-0.000000	0.000000	0.000000	-0.000000	0.000000	0.000000	-0.000000	-21.685232	80.508437	-454.112718	-21.409920	80.546725	-53.769400	
1	0.0050	491.250239	1326.260120	-148.388249	485.622723	1334.032397	-446.858453	0.000000	0.000000	-0.000000	0.000000	0.000000	-0.000000	574.904176	1065.443374	-52.717792	734.862320	860.562006	-91.509645	582.015039	1067.474763	-498.322237	0.000000	0.000000	-0.000000	-79.843174	1150.936244	-253.266214	115.877167	1152.694704	-467.270068	91.220033	1136.455819	-106.315348	80.415082	1095.250326	-406.473838	106.905636	1082.977195	-125.764402	-44.981498	1186.553379	-199.622574	-51.693340	1189.725854	-306.228085	16.348639	1022.682329	-69.214427	16.584497	1045.152964	-465.762971	79.939162	898.191321	-50.266043	124.653206	829.204513	-59.715324	167.805026	751.040508	-75.728030	171.101423	857.452516	-74.474941	198.028706	647.651313	-101.010905	138.583832	543.756367	-67.373892	113.407292	462.839780	-70.061421	77.971543	381.232753	-82.439132	157.670557	448.090816	-108.327250	26.600922	262.861830	-103.151638	0.000000	0.000000	-0.000000	0.000000	0.000000	-0.000000	0.000000	0.000000	-0.000000	0.000000	0.000000	-0.000000	0.000000	0.000000	-0.000000	0.000000	0.000000	-0.000000	0.000000	0.000000	-0.000000	0.000000	0.000000	-0.000000	0.000000	0.000000	-0.000000	0.000000	0.000000	-0.000000	0.000000	0.000000	-0.000000	0.000000	0.000000	-0.000000	0.000000	0.000000	-0.000000	0.000000	0.000000	-0.000000	0.000000	0.000000	-0.000000	129.672717	521.962759	-368.925157	0.000000	0.000000	-0.000000	0.000000	0.000000	-0.000000	0.000000	0.000000	-0.000000	-21.686994	80.508848	-454.124253	-21.398832	80.519383	-53.790472	
2	0.0100	491.255669	1326.242214	-148.371073	485.597745	1334.044725	-446.884806	0.000000	0.000000	-0.000000	0.000000	0.000000	-0.000000	574.888295	1065.435802	-52.718178	734.869829	860.572888	-91.501154	581.981449	1067.486414	-498.368760	0.000000	0.000000	-0.000000	-79.842998	1150.942492	-253.276945	115.881799	1152.740037	-467.356948	91.212119	1136.450890	-106.320307	80.420255	1095.273926	-406.469437	106.909954	1082.999363	-125.769669	-44.973835	1186.561996	-199.614881	-51.684127	1189.746069	-306.233323	16.339014	1022.686160	-69.196365	16.589769	1045.173711	-465.750426	79.935348	898.200881	-50.268527	124.665207	829.201715	-59.714322	167.789519	751.042910	-75.738840	171.105894	857.446853	-74.473492	198.046077	647.650493	-101.007132	138.594349	543.756388	-67.371667	113.402905	462.845379	-70.069652	77.976390	381.258330	-82.425715	157.665193	448.104122	-108.337020	26.587122	262.886275	-103.148290	0.000000	0.000000	-0.000000	0.000000	0.000000	-0.000000	0.000000	0.000000	-0.000000	0.000000	0.000000	-0.000000	0.000000	0.000000	-0.000000	0.000000	0.000000	-0.000000	0.000000	0.000000	-0.000000	0.000000	0.000000	-0.000000	0.000000	0.000000	-0.000000	0.000000	0.000000	-0.000000	0.000000	0.000000	-0.000000	0.000000	0.000000	-0.000000	0.000000	0.000000	-0.000000	0.000000	0.000000	-0.000000	0.000000	0.000000	-0.000000	129.674890	521.966213	-368.921328	0.000000	0.000000	-0.000000	0.000000	0.000000	-0.000000	0.000000	0.000000	-0.000000	-21.681743	80.519810	-454.138357	-21.399270	80.512409	-53.798781	
3	0.0150	491.285265	1326.238125	-148.364424	485.892247	1333.536427	-447.080930	0.000000	0.000000	-0.000000	0.000000	0.000000	-0.000000	574.634951	1065.429720	-52.440862	734.866962	860.557037	-91.512346	582.448503	1067.605288	-497.847258	0.000000	0.000000	-0.000000	-80.164131	1151.292852	-249.659960	115.887862	1152.781763	-467.437902	91.235191	1136.570262	-106.334810	80.403535	1095.267601	-406.480163	107.728707	1082.823791	-125.236304	-44.916060	1186.539025	-199.551659	-51.761185	1189.665150	-306.231931	16.291252	1022.560146	-69.167556	16.565150	1045.191235	-465.769325	80.032934	898.289972	-49.943277	124.647051	829.205650	-59.711261	167.794256	751.038444	-75.739937	171.090849	857.450809	-74.481251	197.965462	647.724665	-100.979400	138.582272	543.769177	-67.381293	113.413318	462.859583	-70.064943	77.973621	381.268924	-82.435050	157.665156	448.113066	-108.330257	26.490829	262.959130	-103.101513	0.000000	0.000000	-0.000000	0.000000	0.000000	-0.000000	0.000000	0.000000	-0.000000	0.000000	0.000000	-0.000000	0.000000	0.000000	-0.000000	0.000000	0.000000	-0.000000	0.000000	0.000000	-0.000000	0.000000	0.000000	-0.000000	0.000000	0.000000	-0.000000	0.000000	0.000000	-0.000000	0.000000	0.000000	-0.000000	0.000000	0.000000	-0.000000	0.000000	0.000000	-0.000000	0.000000	0.000000	-0.000000	0.000000	0.000000	-0.000000	129.679663	521.953023	-368.928542	0.000000	0.000000	-0.000000	0.000000	0.000000	-0.000000	0.000000	0.000000	-0.000000	-21.680879	80.525186	-454.133755	-21.381882	80.538515	-53.785002	
